<svg width="24" height="24" viewBox="0 0 24 24" fill="none" xmlns="http://www.w3.org/2000/svg">
<g clip-path="url(#clip0_574_6627)">
<path d="M20 12C20 7.58172 16.4183 4 12 4C7.58172 4 4 7.58172 4 12C4 16.4183 7.58172 20 12 20C16.4183 20 20 16.4183 20 12Z" stroke="white" stroke-miterlimit="10"/>
<path d="M11.79 14.66C12.08 14.66 12.3 14.74 12.48 14.91C12.66 15.08 12.74 15.29 12.74 15.55C12.74 15.81 12.65 16.02 12.48 16.19C12.31 16.36 12.08 16.44 11.79 16.44C11.5 16.44 11.28 16.36 11.11 16.19C10.94 16.02 10.85 15.81 10.85 15.55C10.85 15.29 10.94 15.08 11.11 14.91C11.28 14.74 11.51 14.66 11.79 14.66ZM12.49 13.73H11.08L10.88 7.82001H12.68L12.48 13.73H12.49Z" fill="white"/>
</g>
<defs>
<clipPath id="clip0_574_6627">
<rect width="17" height="17" fill="white" transform="translate(3.5 3.5)"/>
</clipPath>
</defs>
</svg>
