<svg width="104" height="130" viewBox="0 0 104 130" fill="none" xmlns="http://www.w3.org/2000/svg">
<g opacity="0.1">
<path d="M53.2002 91.68H92.1502" stroke="white" stroke-width="4" stroke-linecap="round" stroke-linejoin="round"/>
<path d="M53.2002 100.23H92.1502" stroke="white" stroke-width="4" stroke-linecap="round" stroke-linejoin="round"/>
<path d="M53.2002 107.79H92.1502" stroke="white" stroke-width="4" stroke-linecap="round" stroke-linejoin="round"/>
<path d="M101.909 13.45C96.0793 12.52 92.3693 10.71 91.4593 8.37C90.5293 5.99 92.5693 3.33 92.6293 3.25C93.1093 2.65 93.1993 1.83 92.8693 1.14C92.5393 0.449999 91.8393 0 91.0693 0H12.5993C8.43932 0 5.21932 1.31 3.01932 3.91C-0.690682 8.29 -0.0106672 14.77 0.159333 15.95V119.79C0.159333 123.12 1.26932 125.7 3.45932 127.44C5.77932 129.29 8.86932 129.74 11.3693 129.74C13.3093 129.74 14.8893 129.46 15.4793 129.35H101.599C102.699 129.35 103.599 128.45 103.599 127.35V15.43C103.599 14.45 102.889 13.61 101.919 13.46L101.909 13.45ZM12.5893 4H87.7593C87.1993 5.62 86.8993 7.67 87.7193 9.79C88.6893 12.32 91.0093 14.3 94.6293 15.69H10.4693C8.68933 15.69 7.44933 15.2 6.66933 14.2C5.11933 12.22 5.46933 8.52 5.79933 6.84C5.88933 6.72 5.97933 6.59 6.07933 6.47C7.48933 4.82 9.67932 3.99 12.5993 3.99L12.5893 4ZM15.2593 125.34C15.1093 125.34 14.9593 125.36 14.8093 125.39C13.1793 125.76 8.41932 126.28 5.92932 124.29C4.72932 123.33 4.14932 121.85 4.14932 119.77V17.37C5.34932 18.55 7.30933 19.69 10.4693 19.69H16.1993V125.34H15.2593ZM20.1993 125.34V19.7H99.5993V125.35H20.1993V125.34Z" fill="white"/>
<path d="M72.6702 83.21C83.4232 83.21 92.1402 74.493 92.1402 63.74C92.1402 52.987 83.4232 44.27 72.6702 44.27C61.9172 44.27 53.2002 52.987 53.2002 63.74C53.2002 74.493 61.9172 83.21 72.6702 83.21Z" stroke="white" stroke-width="4" stroke-linecap="round" stroke-linejoin="round"/>
<path d="M80.8602 68.55C80.8002 66.85 80.0002 65.25 78.6902 64.18C77.4302 63.15 75.8702 62.58 74.6802 62.26V57.08C76.3102 57.64 76.7402 58.79 76.8002 58.99C77.0902 60.04 78.1702 60.66 79.2302 60.39C80.3002 60.11 80.9402 59.02 80.6702 57.95C80.6202 57.76 79.5402 53.84 74.6802 52.96V50.64C74.6802 49.54 73.7802 48.64 72.6802 48.64C71.5802 48.64 70.6802 49.54 70.6802 50.64V52.84C69.7702 52.96 68.7102 53.22 67.7502 53.79C65.9602 54.85 64.8402 56.8 64.7702 59.01C64.6902 61.25 65.6902 63.31 67.4402 64.51C68.2602 65.07 69.4202 65.49 70.6802 65.72V71.14C69.7202 70.65 68.6802 69.74 68.1602 68.07C67.8302 67.01 66.7102 66.42 65.6602 66.75C64.6002 67.07 64.0102 68.19 64.3402 69.25C65.5902 73.32 68.6302 74.83 70.6802 75.39V77.17C70.6802 78.27 71.5802 79.17 72.6802 79.17C73.7802 79.17 74.6802 78.27 74.6802 77.17V75.48C76.5102 75.03 78.0702 74.05 78.9802 73.18C80.2402 71.98 80.9302 70.29 80.8602 68.56V68.55ZM69.6902 61.22C69.0702 60.8 68.7202 60.02 68.7502 59.15C68.7802 58.31 69.1602 57.59 69.7702 57.23C70.0302 57.08 70.3402 56.97 70.6602 56.9V61.63C70.2102 61.5 69.8702 61.35 69.6802 61.22H69.6902ZM76.2102 70.27C75.8402 70.62 75.2902 70.99 74.6702 71.27V66.45C75.2102 66.66 75.7402 66.92 76.1502 67.26C76.5802 67.62 76.8402 68.12 76.8602 68.69C76.8802 69.28 76.6502 69.85 76.2102 70.26V70.27Z" fill="white"/>
</g>
</svg>
