<svg width="80" height="130" viewBox="0 0 80 130" fill="none" xmlns="http://www.w3.org/2000/svg">
<g opacity="0.2" clip-path="url(#clip0_582_6645)">
<path d="M19.88 33.91H30.65C33.46 33.91 35.74 31.63 35.74 28.82V18.05C35.74 15.24 33.46 12.96 30.65 12.96H19.88C17.07 12.96 14.79 15.24 14.79 18.05V28.82C14.79 31.63 17.07 33.91 19.88 33.91ZM18.79 18.05C18.79 17.45 19.28 16.96 19.88 16.96H30.65C31.25 16.96 31.74 17.45 31.74 18.05V28.82C31.74 29.42 31.25 29.91 30.65 29.91H19.88C19.28 29.91 18.79 29.42 18.79 28.82V18.05Z" fill="white"/>
<path d="M35.74 56.08V45.31C35.74 42.5 33.46 40.22 30.65 40.22H19.88C17.07 40.22 14.79 42.5 14.79 45.31V56.08C14.79 58.89 17.07 61.17 19.88 61.17H30.65C33.46 61.17 35.74 58.89 35.74 56.08ZM18.79 56.08V45.31C18.79 44.71 19.28 44.22 19.88 44.22H30.65C31.25 44.22 31.74 44.71 31.74 45.31V56.08C31.74 56.68 31.25 57.17 30.65 57.17H19.88C19.28 57.17 18.79 56.68 18.79 56.08Z" fill="white"/>
<path d="M44.97 23.4399C44.97 24.5399 45.87 25.4399 46.97 25.4399H79.11V21.4399H46.97C45.87 21.4399 44.97 22.3399 44.97 23.4399Z" fill="white"/>
<path d="M44.97 50.6899C44.97 51.7899 45.87 52.6899 46.97 52.6899H79.11V48.6899H46.97C45.87 48.6899 44.97 49.5899 44.97 50.6899Z" fill="white"/>
<path d="M29.41 101.37C29.41 112.62 34.47 122.7 42.43 129.47H49.21C39.74 123.69 33.4 113.26 33.4 101.37C33.4 83.23 48.16 68.47 66.3 68.47C70.83 68.47 75.16 69.39 79.09 71.06V66.76C75.1 65.28 70.79 64.47 66.3 64.47C45.95 64.47 29.4 81.02 29.4 101.37H29.41Z" fill="white"/>
<path d="M50.45 112.34L66.47 85.22L79.11 106.82V98.9L68.2 80.27C67.84 79.66 67.19 79.28 66.48 79.28C65.77 79.28 65.12 79.65 64.76 80.26L45.23 113.33C44.86 113.95 44.86 114.71 45.21 115.34C45.57 115.96 46.23 116.35 46.95 116.35H79.11V112.35H50.45V112.34Z" fill="white"/>
<path d="M64.39 94.25V102.04C64.39 103.14 65.29 104.04 66.39 104.04C67.49 104.04 68.39 103.14 68.39 102.04V94.25C68.39 93.15 67.49 92.25 66.39 92.25C65.29 92.25 64.39 93.15 64.39 94.25Z" fill="white"/>
<path d="M66.39 105.53C64.92 105.53 63.73 106.72 63.73 108.19C63.73 109.66 64.92 110.85 66.39 110.85C67.86 110.85 69.05 109.66 69.05 108.19C69.05 106.72 67.86 105.53 66.39 105.53Z" fill="white"/>
<path d="M4 4H79.1V0H2C1.47 0 0.96 0.21 0.59 0.59C0.22 0.97 0 1.47 0 2V129.47H4V4Z" fill="white"/>
</g>
<defs>
<clipPath id="clip0_582_6645">
<rect width="79.1" height="129.47" fill="white"/>
</clipPath>
</defs>
</svg>
